REM DIRINDEX 1\2\4,1\2\5,1\3\6,1\3\7,1\3\8
REM DIRNAME cjc092,folder01,folder02,folder03,folder04,folder05,folder06,folder07
TITLE ""
FILE "LEVEL2-015-midashigo.mp3" MP3
  TRACK 01 AUDIO
    TITLE "0:"
    INDEX 01 00:00:00
  TRACK 02 AUDIO
    TITLE "6:cjc092_1479"
    INDEX 01 00:00:01
  TRACK 03 AUDIO
    TITLE "0:"
    INDEX 01 00:02:34
  TRACK 04 AUDIO
    TITLE "7:cjc092_1480"
    INDEX 01 00:03:12
  TRACK 05 AUDIO
    TITLE "8:cjc092_1481"
    INDEX 01 00:04:46
  TRACK 06 AUDIO
    TITLE "0:"
    INDEX 01 00:07:43
  TRACK 07 AUDIO
    TITLE "7:cjc092_1482"
    INDEX 01 00:08:01
  TRACK 08 AUDIO
    TITLE "8:cjc092_1483"
    INDEX 01 00:09:30
  TRACK 09 AUDIO
    TITLE "0:"
    INDEX 01 00:10:43
  TRACK 10 AUDIO
    TITLE "7:cjc092_1484"
    INDEX 01 00:11:01
  TRACK 11 AUDIO
    TITLE "8:cjc092_1485"
    INDEX 01 00:12:32
  TRACK 12 AUDIO
    TITLE "0:"
    INDEX 01 00:14:25
  TRACK 13 AUDIO
    TITLE "7:cjc092_1486"
    INDEX 01 00:14:54
  TRACK 14 AUDIO
    TITLE "8:cjc092_1487"
    INDEX 01 00:16:00
  TRACK 15 AUDIO
    TITLE "0:"
    INDEX 01 00:17:31
  TRACK 16 AUDIO
    TITLE "7:cjc092_1488"
    INDEX 01 00:17:59
  TRACK 17 AUDIO
    TITLE "8:cjc092_1489"
    INDEX 01 00:19:16
  TRACK 18 AUDIO
    TITLE "0:"
    INDEX 01 00:22:19
  TRACK 19 AUDIO
    TITLE "7:cjc092_1490"
    INDEX 01 00:22:44
  TRACK 20 AUDIO
    TITLE "8:cjc092_1491"
    INDEX 01 00:24:14
  TRACK 21 AUDIO
    TITLE "0:"
    INDEX 01 00:26:60
  TRACK 22 AUDIO
    TITLE "7:cjc092_1492"
    INDEX 01 00:27:16
  TRACK 23 AUDIO
    TITLE "8:cjc092_1493"
    INDEX 01 00:28:45
  TRACK 24 AUDIO
    TITLE "0:"
    INDEX 01 00:30:63
  TRACK 25 AUDIO
    TITLE "7:cjc092_1494"
    INDEX 01 00:31:26
  TRACK 26 AUDIO
    TITLE "8:cjc092_1495"
    INDEX 01 00:32:43
  TRACK 27 AUDIO
    TITLE "0:"
    INDEX 01 00:34:51
  TRACK 28 AUDIO
    TITLE "7:cjc092_1496"
    INDEX 01 00:35:12
  TRACK 29 AUDIO
    TITLE "8:cjc092_1497"
    INDEX 01 00:36:52
  TRACK 30 AUDIO
    TITLE "0:"
    INDEX 01 00:37:59
  TRACK 31 AUDIO
    TITLE "7:cjc092_1498"
    INDEX 01 00:38:20
  TRACK 32 AUDIO
    TITLE "8:cjc092_1499"
    INDEX 01 00:39:62
  TRACK 33 AUDIO
    TITLE "0:"
    INDEX 01 00:44:28
  TRACK 34 AUDIO
    TITLE "7:cjc092_1500"
    INDEX 01 00:44:65
  TRACK 35 AUDIO
    TITLE "8:cjc092_1501"
    INDEX 01 00:46:19
  TRACK 36 AUDIO
    TITLE "0:"
    INDEX 01 00:48:49
  TRACK 37 AUDIO
    TITLE "7:cjc092_1502"
    INDEX 01 00:49:10
  TRACK 38 AUDIO
    TITLE "8:cjc092_1503"
    INDEX 01 00:50:56
  TRACK 39 AUDIO
    TITLE "0:"
    INDEX 01 00:55:08
  TRACK 40 AUDIO
    TITLE "7:cjc092_1504"
    INDEX 01 00:55:34
  TRACK 41 AUDIO
    TITLE "8:cjc092_1505"
    INDEX 01 00:56:67
  TRACK 42 AUDIO
    TITLE "0:"
    INDEX 01 00:59:30
  TRACK 43 AUDIO
    TITLE "7:cjc092_1506"
    INDEX 01 00:59:63
  TRACK 44 AUDIO
    TITLE "8:cjc092_1507"
    INDEX 01 01:00:66
  TRACK 45 AUDIO
    TITLE "0:"
    INDEX 01 01:03:69
  TRACK 46 AUDIO
    TITLE "7:cjc092_1508"
    INDEX 01 01:04:31
  TRACK 47 AUDIO
    TITLE "8:cjc092_1509"
    INDEX 01 01:05:34
  TRACK 48 AUDIO
    TITLE "0:"
    INDEX 01 01:08:42
  TRACK 49 AUDIO
    TITLE "7:cjc092_1510"
    INDEX 01 01:09:01
  TRACK 50 AUDIO
    TITLE "8:cjc092_1511"
    INDEX 01 01:10:35
  TRACK 51 AUDIO
    TITLE "0:"
    INDEX 01 01:13:28
  TRACK 52 AUDIO
    TITLE "7:cjc092_1512"
    INDEX 01 01:13:55
  TRACK 53 AUDIO
    TITLE "8:cjc092_1513"
    INDEX 01 01:14:68
  TRACK 54 AUDIO
    TITLE "0:"
    INDEX 01 01:16:61
  TRACK 55 AUDIO
    TITLE "7:cjc092_1514"
    INDEX 01 01:17:18
  TRACK 56 AUDIO
    TITLE "8:cjc092_1515"
    INDEX 01 01:18:33
  TRACK 57 AUDIO
    TITLE "0:"
    INDEX 01 01:21:57
  TRACK 58 AUDIO
    TITLE "7:cjc092_1516"
    INDEX 01 01:22:13
  TRACK 59 AUDIO
    TITLE "8:cjc092_1517"
    INDEX 01 01:23:46
  TRACK 60 AUDIO
    TITLE "0:"
    INDEX 01 01:32:27
  TRACK 61 AUDIO
    TITLE "7:cjc092_1518"
    INDEX 01 01:32:64
  TRACK 62 AUDIO
    TITLE "8:cjc092_1519"
    INDEX 01 01:34:32
  TRACK 63 AUDIO
    TITLE "0:"
    INDEX 01 01:36:37
